Coordinates
version=1
nRows=19
nColumns=34
inDegrees=yes

Units are S.I. units (second, meters, Newtons, ...)
If the header above contains a line with 'inDegrees', this indicates whether rotational values are in degrees (yes) or radians (no).

endheader
time	pelvis_tilt	pelvis_list	pelvis_rotation	pelvis_tx	pelvis_ty	pelvis_tz	hip_flexion_r	hip_adduction_r	hip_rotation_r	knee_angle_r	ankle_angle_r	subtalar_angle_r	mtp_angle_r	hip_flexion_l	hip_adduction_l	hip_rotation_l	knee_angle_l	ankle_angle_l	subtalar_angle_l	mtp_angle_l	lumbar_extension	lumbar_bending	lumbar_rotation	arm_flex_r	arm_add_r	arm_rot_r	elbow_flex_r	pro_sup_r	arm_flex_l	arm_add_l	arm_rot_l	elbow_flex_l	pro_sup_l
     23.89166670	    -10.65327023	      4.32119479	     -4.31274273	      0.09071039	      0.86720951	      0.08568980	      0.12678616	     -4.87732362	     -2.06488032	     51.41634802	    -19.93925531	    -15.83534725	      0.00000000	     30.71698753	      5.50789090	      2.61864867	     15.49138942	     -0.64270854	     -0.64942291	      0.00000000	     -0.76152118	     -8.74966599	      7.45022976	     11.58813922	    -10.45408921	     13.03645929	     90.55521405	     94.75281197	    -26.92367104	    -13.26994935	    -16.96714556	     96.32179788	    100.81217176
     23.90000000	    -10.15407078	      4.27792064	     -4.23881462	      0.09307915	      0.86451113	      0.08583480	      1.00396656	     -5.17013219	     -2.21138855	     56.11357332	    -20.05278257	    -18.62747047	      0.00000000	     29.48998381	      5.54606498	      3.11202633	     15.56254846	     -0.81631110	     -0.72708698	      0.00000000	     -0.90510341	     -8.82540743	      7.28554111	      9.87421071	     -9.96084516	     12.59370373	     88.49892996	     94.59899893	    -26.07635999	    -13.76181899	    -17.27399444	     97.02336657	    100.90594659
     23.90833330	     -9.66243776	      4.33838655	     -4.17296953	      0.09481642	      0.86142120	      0.08550755	      2.05870122	     -5.66389643	     -2.46445072	     60.92806640	    -19.85647941	    -21.20966397	      0.00000000	     28.25058837	      5.75935810	      3.47748363	     15.92033770	     -0.67572990	     -1.00386329	      0.00000000	     -1.11383345	     -9.00451842	      7.08196928	      8.02457866	     -9.52855696	     12.04178566	     86.40111937	     94.44869755	    -25.20738323	    -14.31193625	    -17.34502699	     97.82454317	    101.01022590
     23.91666670	     -9.23358227	      4.49235327	     -4.01945031	      0.09606495	      0.85774745	      0.08500744	      3.22746229	     -6.29563749	     -2.75442926	     65.57305395	    -19.74329924	    -23.42569369	      0.00000000	     27.11993815	      6.17111747	      3.80839690	     16.64819616	     -0.13408898	     -1.52664436	      0.00000000	     -1.29790281	     -9.27474312	      6.74080811	      6.09661794	     -9.03081085	     11.24846959	     84.19661242	     94.28008260	    -24.31761069	    -14.94578923	    -17.13743479	     98.85667664	    101.14446799
     23.92500000	     -8.86143296	      4.77071984	     -3.84579957	      0.09714308	      0.85386309	      0.08466205	      4.49344141	     -7.09317180	     -3.06141099	     70.05260098	    -19.47961133	    -25.33347116	      0.00000000	     26.03739486	      6.79106871	      4.02744008	     17.66356330	      0.90617688	     -2.32639056	      0.00000000	     -1.47669547	     -9.65431074	      6.28652026	      4.15181017	     -8.49697769	     10.31173117	     81.98426796	     94.10715780	    -23.43552882	    -15.66454481	    -16.72742125	    100.03340576	    101.30674944
     23.93333330	     -8.54120915	      5.13914364	     -3.60996789	      0.09752392	      0.84927101	      0.08379931	      5.84430938	     -8.01626193	     -3.36121197	     74.46950987	    -19.07515988	    -27.00336759	      0.00000000	     25.06211313	      7.62036858	      4.20622694	     19.05069244	      2.42469501	     -3.35342733	      0.00000000	     -1.67690533	    -10.07965762	      5.66284557	      2.23943789	     -7.95397408	      9.27442569	     79.84372110	     93.93551578	    -22.48964450	    -16.48748736	    -16.04372942	    101.40598148	    101.50997839
     23.94166670	     -8.38443480	      5.54151809	     -3.36669834	      0.09726711	      0.84404420	      0.08265693	      7.48069534	     -8.88701154	     -3.52669538	     78.63171530	    -18.37139290	    -27.80628177	      0.00000000	     24.29875655	      8.55450208	      4.27759257	     20.69240813	      4.20904519	     -4.70258206	      0.00000000	     -1.74772231	    -10.52326326	      4.93340847	      0.42444427	     -7.36264014	      7.95028271	     77.83782294	     93.73462793	    -21.33426656	    -17.46992271	    -14.93422842	    102.81741013	    101.83159059
     23.95000000	     -8.16836072	      5.93896438	     -2.98854124	      0.09745667	      0.84026413	      0.08151224	      8.98090952	     -9.61910970	     -3.62476334	     82.44253159	    -17.64810283	    -27.93225440	      0.00000000	     23.36246146	      9.61154883	      4.52971562	     22.32936450	      6.20110995	     -5.85290661	      0.00000000	     -1.91752328	    -10.99197351	      4.08534748	     -1.48368654	     -7.07601148	      7.11712409	     75.96656574	     93.61687502	    -19.95950486	    -18.35482913	    -13.90781313	    104.31492784	    102.08091765
     23.95833330	     -8.09902475	      6.30745995	     -2.70864894	      0.09756208	      0.83708171	      0.08056778	     10.73674668	    -10.24810324	     -3.39293780	     86.13441449	    -16.66399402	    -27.40296907	      0.00000000	     22.27214176	     10.58305568	      4.60863667	     23.77721132	      8.54596415	     -6.94007303	      0.00000000	     -1.92156810	    -11.28961638	      3.66670363	     -3.72264232	     -6.40488070	      4.95405281	     74.61862327	     93.35012841	    -17.81155032	    -19.80490935	    -11.56846596	    105.03725173	    102.83376840
     23.96666670	     -8.01511191	      6.42084950	     -2.26727825	      0.09699296	      0.83432412	      0.07920018	     12.42685859	    -10.54131960	     -3.13223326	     89.37695068	    -16.13089521	    -27.06264938	      0.00000000	     21.10165268	     11.29999268	      5.01675111	     25.15679933	     10.94126799	     -7.41060383	      0.00000000	     -2.10664867	    -11.38717477	      3.25508426	     -6.02330817	     -6.08062330	      3.19327978	     73.75656661	     93.20978377	    -14.84653407	    -20.72411969	     -8.97461841	    105.94356571	    103.69439637
     23.97500000	     -7.86685774	      6.35180870	     -1.94741912	      0.09645292	      0.83268346	      0.07801189	     14.22347510	    -10.45715772	     -2.53733361	     91.99493046	    -15.95389370	    -27.04149559	      0.00000000	     19.68816893	     11.77763303	      5.62490837	     26.22125915	     13.07492534	     -8.13896913	      0.00000000	     -2.42458802	    -11.19632633	      1.59433389	     -7.28093888	     -6.14857222	      3.11792244	     72.83137360	     93.20554121	    -13.18316008	    -20.89124055	     -8.53700169	    106.98835627	    103.75467190
     23.98333330	     -8.10278939	      6.08484159	     -1.42913201	      0.09626512	      0.83212174	      0.07741662	     16.44582637	    -10.04308777	     -2.00957376	     93.96978354	    -14.90817887	    -26.28126129	      0.00000000	     18.40997987	     11.87716399	      6.16935999	     26.69843588	     14.69872033	     -7.84713082	      0.00000000	     -2.33516887	    -11.06024364	      0.22509330	     -8.83628504	     -6.01836653	      2.38194632	     71.22387458	     93.13334634	    -11.08497240	    -21.62933271	     -6.29218361	    109.04901445	    104.03046897
     23.99166670	     -8.15625709	      5.96680670	     -1.20899825	      0.09647919	      0.83168200	      0.07661417	     18.68940743	     -9.76362819	     -1.08346747	     95.66576642	    -13.71421233	    -25.89127524	      0.00000000	     16.74149664	     11.93063045	      6.36007484	     26.67007658	     16.44454465	     -6.89298890	      0.00000000	     -2.20720572	    -10.83856923	      0.21616898	    -11.34014686	     -5.62778752	     -0.01526081	     71.18377579	     92.89584749	     -7.07759591	    -22.39621257	     -2.76996722	    108.52227210	    104.69080318
     24.00000000	     -8.26472248	      5.42392710	     -0.83121338	      0.09618977	      0.83194943	      0.07597356	     20.78648169	     -8.90366814	     -0.51812887	     96.80802756	    -13.82110321	    -25.34022737	      0.00000000	     14.94489730	     11.53587525	      7.02011825	     26.28240123	     17.33046851	     -6.72054660	      0.00000000	     -2.19099948	    -10.21728534	     -1.54341368	    -12.72871531	     -5.71175084	     -0.16908904	     70.67449641	     92.88847626	     -5.17025072	    -22.01388048	     -2.18956930	    109.70066352	    104.73428278
     24.00833330	     -8.42943714	      4.78896701	     -0.64953906	      0.09454838	      0.83253048	      0.07581654	     23.51832616	     -7.90599625	      0.25056847	     97.27443150	    -12.01161025	    -25.66161407	      0.00000000	     13.11891003	     10.91708399	      7.49488428	     25.53220831	     17.82479966	     -6.33871011	      0.00000000	     -2.03339570	     -9.48869148	     -3.11686906	    -13.91237158	     -5.89688725	     -0.42155548	     70.39888786	     92.86679494	     -3.24544211	    -21.81795729	     -1.51034390	    110.61424396	    104.77959650
     24.01666670	     -8.67367994	      4.25912103	     -0.46056939	      0.09268082	      0.83321999	      0.07579515	     26.68405127	     -6.96879184	      1.07949563	     97.56235086	     -9.60894398	    -23.53849944	      0.00000000	     11.44247468	     10.31716804	      7.74864170	     24.69375442	     18.28332061	     -5.18481142	      0.00000000	     -1.82244427	     -8.81879886	     -4.19992364	    -15.37629312	     -6.01119496	     -1.29992862	     71.04075625	     92.78149220	     -0.64876535	    -21.81640436	      0.28290306	    111.39292192	    104.87883223
     24.02500000	     -8.78719434	      3.63361932	     -0.30101003	      0.09030188	      0.83519855	      0.07635962	     29.68100519	     -5.84420894	      1.60434653	     97.07536672	     -8.30769935	    -22.75571743	      0.00000000	      9.46479104	      9.52616910	      7.98346156	     23.41584919	     17.89517512	     -4.36898294	      0.00000000	     -1.74848538	     -7.94475527	     -3.95061916	    -17.77208315	     -5.42695764	     -4.17321321	     72.46326535	     92.59959276	      3.38553731	    -21.66765073	      3.17198054	    110.18003586	    104.80801625
     24.03333330	     -8.98707884	      2.93048825	     -0.04636035	      0.08788463	      0.83697616	      0.07688427	     32.65936988	     -4.60984339	      1.88029918	     96.15276631	     -7.89334266	    -22.35211466	      0.00000000	      7.69804041	      8.63061083	      8.19105590	     22.32744459	     16.83780113	     -3.59031337	      0.00000000	     -1.62033270	     -7.06934725	     -5.54889558	    -18.45227563	     -5.68615461	     -4.26143467	     72.66519606	     92.60876357	      5.04291050	    -21.40161967	      3.08546801	    110.80335538	    104.76782852
     24.04166670	     -9.33119317	      2.09208577	      0.01354714	      0.08587697	      0.83939682	      0.07778703	     35.53315004	     -3.19339493	      1.97142428	     94.90774907	     -6.70986902	    -20.62324288	      0.00000000	      6.06656225	      7.45724386	      7.83775182	     21.21275339	     15.68597112	     -2.46434122	      0.00000000	     -1.53755974	     -5.93971794	     -6.57953896	    -19.62161438	     -6.08678521	     -4.64555015	     74.21398257	     92.63899539	      6.44490291	    -20.81938235	      3.15474510	    111.61993030	    104.64161780
